<svg width="14" height="67" viewBox="0 0 14 67" fill="none" xmlns="http://www.w3.org/2000/svg">
<path d="M11.1602 0.457074C11.4601 -0.00672388 12.0791 -0.13963 12.5429 0.160219C13.0067 0.460069 13.1396 1.07913 12.8398 1.54293L11.1602 0.457074ZM12.9995 66.0307C12.9826 66.5827 12.5213 67.0165 11.9693 66.9995L2.97353 66.7231C2.42151 66.7061 1.98775 66.2449 2.00472 65.6929C2.02168 65.1408 2.48293 64.7071 3.03496 64.7241L11.0312 64.9698L11.2769 56.9735C11.2939 56.4215 11.7551 55.9878 12.3071 56.0047C12.8592 56.0217 13.2929 56.4829 13.2759 57.035L12.9995 66.0307ZM12.8398 1.54293C8.75533 7.86062 3.84024 18.6718 2.40915 30.4906C0.980325 42.2908 3.02945 55.001 12.7285 65.3149L11.2715 66.6851C1.04849 55.8139 -1.05281 42.4438 0.423656 30.2502C1.89787 18.0751 6.94381 6.97888 11.1602 0.457074L12.8398 1.54293Z" fill="#0CC9A7"/>
</svg>
