<svg width="16" height="20" viewBox="0 0 16 20" fill="none" xmlns="http://www.w3.org/2000/svg">
<path fill-rule="evenodd" clip-rule="evenodd" d="M1.4778 0.0663922C1.15123 0.154357 0.942565 0.269215 0.679057 0.506174C0.384394 0.771137 0.197065 1.0581 0.0878216 1.41179C0.00168945 1.69071 0 1.85512 0 9.97193C0 17.308 0.0078222 18.2778 0.0689769 18.5127C0.239286 19.1669 0.764479 19.7097 1.42625 19.9157C1.68638 19.9967 1.93802 19.9999 7.97229 19.9999C14.8318 19.9999 14.523 20.0112 14.9769 19.7451C15.2609 19.5787 15.5547 19.29 15.7201 19.0148C16.018 18.5192 15.9998 19.1073 15.9998 9.97531C15.9998 2.55507 15.9925 1.67808 15.9293 1.46152C15.7391 0.80963 15.2224 0.283883 14.5735 0.0819495C14.3132 0.000873906 14.0659 -0.00219303 8.00705 0.000651725C2.72823 0.00309644 1.6734 0.0137197 1.4778 0.0663922ZM13.9998 3.99816V5.99838H7.99989H1.99997V3.99816V1.99794H7.99989H13.9998V3.99816ZM11.0073 3.00547C10.991 3.02174 10.9776 3.48179 10.9776 4.02781V5.0205H11.9998H13.022V3.99816V2.97583H12.0295C11.4835 2.97583 11.0235 2.98916 11.0073 3.00547ZM4.97771 8.99871V9.99882H3.99995H3.02218V8.99871V7.9986H3.99995H4.97771V8.99871ZM8.97766 8.99871V9.99882H7.99989H7.02213V8.99871V7.9986H7.99989H8.97766V8.99871ZM12.9776 8.99871V9.99882H11.9998H11.0221V8.99871V7.9986H11.9998H12.9776V8.99871ZM4.97771 12.9992V13.9993H3.99995H3.02218V12.9992V11.999H3.99995H4.97771V12.9992ZM8.97766 12.9992V13.9993H7.99989H7.02213V12.9992V11.999H7.99989H8.97766V12.9992ZM12.9776 12.9992V13.9993H11.9998H11.0221V12.9992V11.999H11.9998H12.9776V12.9992ZM4.97771 16.9996V17.9997H3.99995H3.02218V16.9996V15.9995H3.99995H4.97771V16.9996ZM8.97766 16.9996V17.9997H7.99989H7.02213V16.9996V15.9995H7.99989H8.97766V16.9996ZM12.9776 16.9996V17.9997H11.9998H11.0221V16.9996V15.9995H11.9998H12.9776V16.9996Z" fill="#333338"/>
</svg>
