<svg width="101" height="15" viewBox="0 0 101 15" fill="none" xmlns="http://www.w3.org/2000/svg">
<path d="M1.37256 6.47021C0.820274 6.47021 0.372559 6.91793 0.372559 7.47021C0.372559 8.0225 0.820274 8.47021 1.37256 8.47021L1.37256 6.47021ZM99.7267 8.17733C100.117 7.78681 100.117 7.15364 99.7267 6.76312L93.3628 0.399155C92.9722 0.00863065 92.3391 0.0086306 91.9485 0.399155C91.558 0.789679 91.558 1.42284 91.9485 1.81337L97.6054 7.47022L91.9485 13.1271C91.558 13.5176 91.558 14.1508 91.9485 14.5413C92.3391 14.9318 92.9722 14.9318 93.3628 14.5413L99.7267 8.17733ZM1.37256 8.47021L99.0196 8.47022L99.0196 6.47022L1.37256 6.47021L1.37256 8.47021Z" fill="#0CB4A7"/>
</svg>
