<svg width="24" height="24" viewBox="0 0 24 24" fill="none" xmlns="http://www.w3.org/2000/svg">
<path fill-rule="evenodd" clip-rule="evenodd" d="M9.23842 0.0687661C9.03574 0.106938 8.71259 0.190878 8.52038 0.255263C8.32822 0.319648 8.01837 0.44856 7.83185 0.541738C7.64537 0.634869 7.34477 0.808705 7.16389 0.92805C6.983 1.04735 6.65379 1.32454 6.43231 1.54395C6.21084 1.76337 5.92307 2.10119 5.79278 2.29463C5.66254 2.48807 5.48204 2.79405 5.39164 2.97459C5.30129 3.15514 5.17204 3.47167 5.10448 3.678C5.03687 3.88434 4.94934 4.24054 4.90992 4.46962C4.8705 4.69869 4.83832 5.07854 4.83842 5.31371C4.83851 5.54888 4.86839 5.9207 4.9048 6.13993C4.94117 6.35916 5.48025 8.467 6.10268 10.8241C6.72511 13.1811 7.23436 15.1249 7.23436 15.1436C7.23436 15.1623 7.10126 15.1883 6.9386 15.2013C6.7759 15.2143 6.56979 15.2618 6.48052 15.3068C6.39125 15.3517 6.24762 15.4547 6.16136 15.5357C6.07515 15.6166 5.96065 15.7672 5.90695 15.8704C5.84216 15.9949 5.80204 16.1797 5.78766 16.4198L5.766 16.7817L3.31706 16.795C0.893674 16.8082 0.866142 16.8094 0.674216 16.9118C0.567518 16.9688 0.396828 17.11 0.294875 17.2256C0.192922 17.3412 0.084626 17.5186 0.054228 17.6199C0.02383 17.7211 -0.000554213 17.8965 9.58336e-06 18.0095C0.00057338 18.1226 0.199922 19.0032 0.443013 19.9663C0.783499 21.3155 0.913595 21.7587 1.00958 21.8969C1.07813 21.9957 1.21649 22.1308 1.31708 22.1972C1.41768 22.2636 1.598 22.3442 1.71785 22.3762L1.93571 22.4343L2.20948 22.9794C2.4139 23.3865 2.53737 23.572 2.69707 23.7123C2.81472 23.8157 3.00105 23.9249 3.11113 23.9551C3.26068 23.996 5.08151 24.0065 10.3118 23.9965C16.7379 23.9841 17.3238 23.9766 17.4532 23.905C17.5307 23.8621 17.665 23.7573 17.7516 23.6721C17.8382 23.5869 18.0316 23.273 18.1815 22.9747L18.4539 22.4322L18.6919 22.3714C18.8228 22.3379 19.0138 22.2499 19.1163 22.1757C19.2188 22.1016 19.3557 21.9503 19.4205 21.8396C19.4987 21.7059 19.6811 21.0682 19.9639 19.9394C20.2586 18.7632 20.3893 18.1572 20.3886 17.9699C20.388 17.8099 20.3524 17.6221 20.3017 17.5107C20.2545 17.4069 20.1468 17.2531 20.0624 17.1689C19.978 17.0846 19.8215 16.969 19.7147 16.912C19.5224 16.8093 19.496 16.8082 17.0704 16.795L14.6205 16.7817L14.6022 16.4198C14.5912 16.2043 14.5504 15.9896 14.5011 15.8888C14.4557 15.7958 14.3518 15.6517 14.2704 15.5685C14.189 15.4854 14.0373 15.3741 13.9333 15.3211C13.8293 15.2682 13.6115 15.2142 13.4492 15.2012C13.287 15.1883 13.1546 15.1647 13.1552 15.1489C13.1557 15.1331 13.3343 14.4477 13.552 13.6259C13.7697 12.8042 13.9608 12.1189 13.9766 12.1031C13.9924 12.0874 14.0617 12.1061 14.1307 12.1448C14.2101 12.1893 14.2884 12.3007 14.344 12.4483C14.3922 12.5766 14.4757 12.7728 14.5295 12.8842C14.5833 12.9956 14.7198 13.1682 14.833 13.2676C14.9462 13.367 15.1365 13.4816 15.256 13.5222C15.3754 13.5628 15.6015 13.5959 15.7584 13.5956C15.96 13.5953 16.1145 13.5622 16.2852 13.4829C16.4179 13.4212 16.6098 13.2957 16.7115 13.204C16.8132 13.1123 16.9567 13.0144 17.0303 12.9865C17.1039 12.9585 17.2248 12.949 17.2989 12.9652C17.3731 12.9815 17.5508 13.097 17.6938 13.2219C17.8369 13.3469 18.0511 13.4822 18.17 13.5226C18.2889 13.563 18.506 13.5961 18.6526 13.5961C18.7992 13.5961 18.991 13.5716 19.0788 13.5417C19.1666 13.5118 19.3291 13.426 19.4397 13.3509C19.5504 13.2758 19.6963 13.1308 19.764 13.0286C19.8317 12.9266 19.9323 12.712 19.9875 12.5519C20.0638 12.3307 20.127 12.2343 20.2505 12.1506C20.3905 12.0556 20.4425 12.0456 20.6245 12.0786C20.7408 12.0996 21.0051 12.1165 21.2118 12.116C21.5095 12.1153 21.6296 12.0933 21.7893 12.0096C21.9002 11.9515 22.0737 11.8189 22.1749 11.7148C22.2777 11.6091 22.4032 11.4082 22.4595 11.2595C22.5411 11.0439 22.5546 10.9357 22.5309 10.6886C22.5148 10.521 22.4899 10.2994 22.4757 10.1963C22.4553 10.049 22.4732 9.97398 22.5591 9.84718C22.6442 9.72145 22.7333 9.66499 22.961 9.59226C23.1219 9.54091 23.3524 9.42368 23.4731 9.33172C23.5977 9.2369 23.7556 9.05303 23.8382 8.90667C23.9695 8.67403 23.9838 8.60969 23.9832 8.25016C23.9828 7.93372 23.962 7.81292 23.8824 7.66398C23.8272 7.56082 23.69 7.37221 23.5775 7.24489C23.3984 7.04203 23.373 6.98613 23.373 6.79391C23.373 6.60151 23.3972 6.54824 23.5694 6.36183C23.6773 6.24493 23.8123 6.0581 23.8693 5.94668C23.9272 5.83343 23.9827 5.61941 23.9953 5.46133C24.0077 5.30583 23.9948 5.09387 23.9667 4.99033C23.9386 4.88674 23.852 4.70184 23.7742 4.57935C23.6942 4.45339 23.5355 4.29503 23.4089 4.21475C23.2858 4.13672 23.0772 4.04143 22.9454 4.00307C22.8136 3.96471 22.655 3.87936 22.593 3.81348C22.4944 3.70858 22.4824 3.65765 22.4968 3.40447C22.5058 3.24541 22.5164 2.96756 22.5203 2.78702C22.5258 2.53023 22.504 2.41159 22.4204 2.24211C22.3615 2.12291 22.2252 1.93819 22.1173 1.8316C22.0029 1.71849 21.8126 1.5969 21.6605 1.53955C21.4423 1.45729 21.346 1.44679 21.0709 1.47521C20.89 1.49387 20.6431 1.51169 20.5223 1.51474C20.3505 1.51915 20.2766 1.49594 20.183 1.40815C20.1172 1.34644 20.0319 1.18831 19.9934 1.05673C19.955 0.925143 19.8595 0.716934 19.7814 0.594118C19.7009 0.467739 19.5423 0.309379 19.4161 0.229518C19.2934 0.151862 19.1081 0.0653897 19.0043 0.0373472C18.9006 0.0093046 18.6882 -0.00354433 18.5324 0.00883566C18.3766 0.0211688 18.1618 0.0757064 18.0551 0.130056C17.9484 0.184406 17.7638 0.312896 17.6449 0.41564C17.5259 0.518338 17.3571 0.615783 17.2697 0.632149C17.1752 0.649875 17.0658 0.638105 17 0.603169C16.9392 0.570859 16.7942 0.46577 16.6779 0.369684C16.5617 0.273552 16.3925 0.157489 16.3021 0.111768C16.211 0.0656711 15.9889 0.0189647 15.8039 0.00700679C15.5131 -0.0118446 15.433 0.00203605 15.1808 0.115003C15.0138 0.189846 14.8203 0.323259 14.723 0.430693C14.6304 0.533063 14.5283 0.683076 14.4963 0.764015C14.4642 0.845001 14.4004 1.0133 14.3545 1.13799C14.2991 1.28857 14.2227 1.39403 14.1272 1.452L13.9834 1.53931L13.7215 1.31441C13.5774 1.1907 13.3299 1.00177 13.1715 0.894521C13.013 0.787228 12.6853 0.605936 12.4432 0.491561C12.2012 0.377234 11.7917 0.227361 11.5333 0.158568C11.1438 0.0548386 10.9389 0.0305475 10.3352 0.0163856C9.82454 0.00442763 9.49692 0.0200433 9.23842 0.0687661ZM11.3186 0.962798C11.5622 1.02409 11.9586 1.16993 12.1995 1.28688C12.4403 1.40384 12.6374 1.51535 12.6374 1.53472C12.6374 1.55408 12.5617 1.61059 12.4692 1.6603C12.3767 1.71001 12.2466 1.81505 12.18 1.89369C12.1135 1.97238 12.0097 2.14223 11.9493 2.27119C11.8742 2.43166 11.8394 2.59161 11.8392 2.77797C11.8389 2.92775 11.862 3.14257 11.8904 3.2553C11.9289 3.40775 11.928 3.50309 11.887 3.62698C11.8567 3.71866 11.7753 3.83238 11.7061 3.87974C11.6369 3.92706 11.4871 3.99257 11.3731 4.0253C11.2592 4.05803 11.0875 4.13428 10.9916 4.19468C10.8957 4.25513 10.7513 4.38446 10.6706 4.48219C10.5899 4.57987 10.4898 4.76247 10.448 4.88796C10.3981 5.03807 10.3781 5.22302 10.3898 5.42874C10.4015 5.63545 10.4443 5.8128 10.5163 5.95236C10.5762 6.06842 10.6961 6.23724 10.7828 6.32751C10.8695 6.41778 10.9637 6.55335 10.9922 6.62875C11.0206 6.70416 11.0307 6.8258 11.0145 6.8991C10.9984 6.97239 10.893 7.14023 10.7802 7.27209C10.6674 7.40396 10.5381 7.5883 10.4927 7.68171C10.4473 7.77512 10.4017 7.99224 10.3912 8.16415C10.3779 8.38113 10.3974 8.55286 10.4548 8.72538C10.5125 8.89879 10.6104 9.04674 10.7784 9.21444C10.9632 9.39887 11.0907 9.47859 11.3256 9.55662C11.494 9.61252 11.6767 9.68971 11.7316 9.72811C11.7865 9.76652 11.8564 9.87325 11.8868 9.96526C11.928 10.0898 11.9289 10.185 11.8904 10.3376C11.862 10.4503 11.8389 10.6651 11.8392 10.8149C11.8394 11.0013 11.8742 11.1612 11.9493 11.3217C12.0097 11.4507 12.116 11.6235 12.1857 11.7059C12.2553 11.7882 12.4417 11.9201 12.5998 11.999C12.758 12.0778 12.9263 12.1424 12.9738 12.1424C13.0214 12.1424 13.061 12.1582 13.0619 12.1775C13.0629 12.1969 12.8884 12.8828 12.6743 13.7019L12.285 15.191L10.1949 15.179L8.10472 15.167L6.9893 10.9466C6.37584 8.62531 5.83112 6.52231 5.77892 6.27325C5.71798 5.98279 5.68392 5.64154 5.68392 5.32168C5.68392 5.04735 5.71709 4.66263 5.75764 4.46671C5.79818 4.27079 5.89431 3.93681 5.97127 3.72461C6.04818 3.51237 6.22023 3.16184 6.35352 2.94561C6.49015 2.72404 6.76073 2.38706 6.97384 2.17318C7.18174 1.96455 7.48666 1.70339 7.65148 1.59291C7.81629 1.48238 8.10392 1.32154 8.29068 1.23539C8.47744 1.1493 8.79655 1.03328 8.99984 0.977617C9.20314 0.921954 9.51807 0.859819 9.69966 0.839561C9.88124 0.819303 10.2201 0.813676 10.4527 0.82704C10.6853 0.840405 11.0749 0.901508 11.3186 0.962798ZM15.9086 0.843125C15.9797 0.870136 16.1307 0.977523 16.244 1.08177C16.3573 1.18601 16.5456 1.31352 16.6624 1.36505C16.8069 1.42888 16.9769 1.4588 17.1948 1.4588C17.4098 1.4588 17.5827 1.42888 17.7216 1.36754C17.8353 1.31732 18.0366 1.18029 18.1689 1.06306C18.3011 0.945823 18.4706 0.836466 18.5456 0.820053C18.6206 0.803594 18.7437 0.813582 18.8192 0.842234C18.8947 0.870886 18.994 0.928238 19.0398 0.969692C19.0857 1.0111 19.1559 1.15708 19.1958 1.2941C19.2357 1.43113 19.3356 1.6437 19.4179 1.76651C19.5001 1.88933 19.668 2.05697 19.791 2.13899C19.914 2.22106 20.1348 2.31306 20.2817 2.3435C20.4994 2.38861 20.6074 2.38598 20.8661 2.32933C21.0407 2.29112 21.2385 2.27029 21.3056 2.28314C21.3729 2.29595 21.4902 2.36872 21.5665 2.44483C21.6708 2.54894 21.7051 2.62683 21.7051 2.75935C21.7051 2.85623 21.6818 3.05159 21.6532 3.19354C21.6148 3.38435 21.6154 3.51922 21.6553 3.71134C21.685 3.85418 21.7708 4.06783 21.8459 4.18605C21.9211 4.30427 22.0696 4.46394 22.176 4.54085C22.2824 4.6178 22.5029 4.7251 22.6661 4.77926C22.8293 4.83347 22.9976 4.91619 23.0401 4.96313C23.0827 5.01007 23.1365 5.11464 23.1597 5.19558C23.1845 5.28173 23.1848 5.40285 23.1604 5.48768C23.1375 5.56736 23.0314 5.72722 22.9246 5.84286C22.8178 5.9585 22.6869 6.15128 22.6337 6.27128C22.5682 6.41904 22.537 6.58852 22.537 6.79645C22.537 7.00437 22.5682 7.17385 22.6337 7.32161C22.6869 7.44161 22.8181 7.63477 22.9254 7.75088C23.0326 7.86699 23.1415 8.03838 23.1673 8.1317C23.205 8.26826 23.1976 8.33541 23.1292 8.47511C23.077 8.58165 22.9806 8.67933 22.8797 8.72782C22.7893 8.77129 22.618 8.84041 22.4992 8.8814C22.3803 8.92238 22.1966 9.02982 22.0909 9.12009C21.9852 9.21036 21.8423 9.39943 21.7733 9.54026C21.6842 9.72202 21.6466 9.87475 21.6439 10.0666C21.6418 10.2153 21.6576 10.4786 21.6792 10.6516C21.712 10.915 21.7052 10.9864 21.6376 11.0893C21.5932 11.157 21.4836 11.2429 21.3941 11.2802C21.2517 11.3396 21.1887 11.3394 20.8927 11.2792C20.6525 11.2304 20.4902 11.2225 20.3343 11.2523C20.2134 11.2753 20.0399 11.3253 19.9487 11.3633C19.8574 11.4014 19.6896 11.5256 19.5755 11.6394C19.4385 11.7762 19.3345 11.9402 19.2686 12.1233C19.2139 12.2756 19.1421 12.453 19.1092 12.5175C19.0762 12.582 18.9704 12.6734 18.8739 12.7206C18.7551 12.7787 18.6525 12.7963 18.5554 12.775C18.4766 12.7577 18.2952 12.6414 18.1522 12.5165C18.0091 12.3915 17.7949 12.2563 17.676 12.2158C17.5571 12.1754 17.3406 12.1424 17.1948 12.1424C17.0489 12.1424 16.8324 12.1754 16.7135 12.2158C16.5946 12.2563 16.3793 12.3925 16.2349 12.5186C16.0807 12.6534 15.9071 12.7601 15.8141 12.7775C15.7127 12.7965 15.6072 12.7821 15.5207 12.7375C15.4465 12.6992 15.3512 12.6287 15.3091 12.5809C15.2669 12.5332 15.1983 12.378 15.1565 12.2361C15.1147 12.0943 15.0081 11.8804 14.9196 11.7609C14.8075 11.6095 14.6696 11.4992 14.4657 11.3974C14.2295 11.2796 14.1147 11.2514 13.8723 11.2514C13.7069 11.2514 13.4788 11.2747 13.3653 11.3032C13.1897 11.3474 13.1323 11.3422 12.9804 11.2681C12.8648 11.2117 12.7711 11.1182 12.7147 11.0028C12.6387 10.8476 12.6346 10.7962 12.6831 10.6042C12.7137 10.483 12.7382 10.2645 12.7375 10.1186C12.7369 9.97271 12.7025 9.77224 12.6612 9.67311C12.6199 9.57397 12.5318 9.41435 12.4654 9.31845C12.399 9.2225 12.2467 9.08182 12.1269 9.00585C12.0072 8.92988 11.814 8.84299 11.6978 8.81279C11.5815 8.78259 11.4284 8.70325 11.3577 8.63647C11.287 8.56969 11.2168 8.44997 11.2019 8.37039C11.187 8.29086 11.1978 8.16514 11.226 8.09114C11.2542 8.01709 11.3699 7.85367 11.4832 7.7279C11.5965 7.60218 11.7227 7.40072 11.7639 7.2802C11.8051 7.15969 11.8371 6.93296 11.8351 6.77638C11.8332 6.61975 11.8068 6.42444 11.7764 6.34233C11.746 6.26021 11.6472 6.09444 11.5568 5.97397C11.4664 5.8535 11.3448 5.69069 11.2866 5.61224C11.2285 5.53373 11.1809 5.41247 11.1809 5.34274C11.1809 5.273 11.229 5.14484 11.2876 5.05795C11.369 4.93743 11.4731 4.87089 11.7269 4.77743C11.9098 4.71004 12.1343 4.59787 12.2258 4.52824C12.3173 4.45855 12.4441 4.32317 12.5075 4.22736C12.5708 4.13156 12.6487 3.97442 12.6804 3.87819C12.7121 3.78192 12.7381 3.58933 12.7381 3.45014C12.7381 3.31096 12.7142 3.10871 12.6851 3.00071C12.6465 2.8575 12.6461 2.76231 12.6835 2.64896C12.7118 2.56347 12.7735 2.45871 12.8206 2.41613C12.8678 2.37351 12.9684 2.32094 13.0443 2.29923C13.1305 2.27451 13.2935 2.28263 13.4789 2.32075C13.6791 2.36192 13.8541 2.36882 14.017 2.34195C14.1497 2.32005 14.3006 2.28605 14.3523 2.2665C14.404 2.24689 14.526 2.1788 14.6235 2.11517C14.7209 2.05153 14.8645 1.91287 14.9426 1.80708C15.0206 1.70124 15.1178 1.49861 15.1585 1.35675C15.1992 1.2149 15.267 1.05902 15.3092 1.01035C15.3514 0.96172 15.4493 0.893958 15.5269 0.859819C15.6044 0.825634 15.6929 0.796888 15.7235 0.795856C15.7541 0.794871 15.8374 0.816114 15.9086 0.843125ZM9.44256 1.66231C9.2746 1.69659 9.04607 1.75742 8.93472 1.79751C8.82337 1.83756 8.59029 1.94485 8.41674 2.03587C8.24323 2.12689 7.97763 2.30307 7.82663 2.42734C7.67558 2.55166 7.45936 2.76465 7.34618 2.90069C7.19086 3.08737 7.1404 3.18768 7.1404 3.30965C7.1404 3.41868 7.17789 3.50867 7.25574 3.58632C7.33552 3.666 7.42323 3.70145 7.5405 3.70145C7.68841 3.70145 7.75005 3.66023 8.02424 3.37812C8.19704 3.20029 8.47185 2.96948 8.63493 2.86519C8.79796 2.7609 9.06224 2.63213 9.22221 2.579C9.38214 2.52591 9.69275 2.46087 9.91239 2.43452C10.132 2.40816 10.357 2.36357 10.4123 2.33548C10.4675 2.30734 10.5363 2.23292 10.565 2.17003C10.5936 2.1072 10.6171 2.01289 10.6171 1.96056C10.6171 1.90823 10.5554 1.8037 10.4798 1.72829C10.3556 1.60435 10.314 1.59165 10.0452 1.59563C9.88171 1.59807 9.61053 1.62808 9.44256 1.66231ZM16.3788 2.45806C16.2014 2.49501 15.9476 2.56071 15.815 2.60404C15.6824 2.64741 15.4259 2.75668 15.245 2.84685C15.0641 2.93698 14.7908 3.09558 14.6378 3.19926C14.4847 3.30294 14.2242 3.52274 14.0589 3.68771C13.8936 3.85268 13.6337 4.1801 13.4814 4.41527C13.329 4.65044 13.1384 5.0239 13.0579 5.2452C12.9773 5.46649 12.8814 5.80239 12.8449 5.99165C12.8083 6.18092 12.7784 6.54308 12.7784 6.79645C12.7784 7.04981 12.8083 7.41198 12.8449 7.60124C12.8814 7.7905 12.9773 8.1264 13.0579 8.3477C13.1384 8.56899 13.329 8.94245 13.4814 9.17763C13.6337 9.4128 13.8975 9.7441 14.0676 9.91386C14.2377 10.0836 14.551 10.3356 14.7639 10.4739C14.9768 10.6121 15.2818 10.78 15.4415 10.8469C15.6014 10.9138 15.8974 11.0162 16.0993 11.0744C16.4151 11.1653 16.5718 11.1797 17.2183 11.1769C17.894 11.1741 18.0117 11.161 18.3826 11.0482C18.6095 10.9791 18.9584 10.8402 19.1578 10.7394C19.3573 10.6386 19.6261 10.4803 19.7553 10.3878C19.8845 10.2952 20.1247 10.0877 20.289 9.92652C20.4533 9.76539 20.681 9.50363 20.795 9.34485C20.9091 9.18602 21.0872 8.87549 21.1908 8.65471C21.2945 8.43394 21.4242 8.08908 21.4791 7.88832C21.5591 7.59613 21.5797 7.38295 21.5827 6.81989C21.5858 6.22411 21.5698 6.05552 21.478 5.71789C21.4184 5.49866 21.287 5.1432 21.186 4.92801C21.085 4.71286 20.9091 4.40687 20.7951 4.24804C20.6811 4.08926 20.4322 3.81029 20.242 3.62806C20.0519 3.44583 19.7961 3.22866 19.6735 3.14547C19.5511 3.06224 19.2762 2.91082 19.0628 2.80901C18.8494 2.70716 18.5056 2.5797 18.2989 2.52577C18.0423 2.45881 17.7291 2.42186 17.3122 2.40929C16.8975 2.39681 16.5979 2.41248 16.3788 2.45806ZM18.0682 3.32625C18.2726 3.37783 18.5932 3.49507 18.7806 3.58679C18.968 3.67857 19.2615 3.86572 19.4327 4.00279C19.604 4.13986 19.8564 4.39182 19.9937 4.56275C20.1311 4.73368 20.3186 5.02658 20.4105 5.21364C20.5024 5.4007 20.6199 5.72065 20.6716 5.92469C20.7364 6.18082 20.7655 6.45065 20.7655 6.79645C20.7655 7.14224 20.7364 7.41207 20.6716 7.6682C20.6199 7.87224 20.5042 8.18854 20.4145 8.37114C20.3248 8.55375 20.1433 8.84294 20.0112 9.01378C19.879 9.18461 19.6406 9.43212 19.4812 9.56375C19.3219 9.69543 19.0013 9.89501 18.7687 10.0073C18.5361 10.1195 18.1979 10.2477 18.017 10.292C17.8016 10.3448 17.5096 10.3717 17.1713 10.3699C16.8092 10.368 16.5449 10.3385 16.2886 10.2715C16.0874 10.2189 15.7581 10.0903 15.5569 9.98575C15.3556 9.88127 15.0662 9.69543 14.9137 9.57285C14.7612 9.45022 14.5359 9.22536 14.4131 9.07319C14.2903 8.92097 14.1041 8.63211 13.9994 8.43121C13.8947 8.23037 13.7655 7.90169 13.7123 7.70089C13.6438 7.44227 13.6149 7.1852 13.6133 6.81989C13.6119 6.49375 13.6397 6.18518 13.6889 5.98087C13.7317 5.80309 13.8477 5.48656 13.9467 5.27746C14.0456 5.06831 14.2287 4.7627 14.3536 4.59825C14.4784 4.43379 14.7195 4.1845 14.8893 4.04429C15.0591 3.90408 15.3671 3.70609 15.5738 3.60433C15.7806 3.50257 16.1083 3.37844 16.3021 3.3285C16.5424 3.26655 16.8202 3.23687 17.1755 3.23509C17.5484 3.23326 17.8022 3.25915 18.0682 3.32625ZM18.6091 4.83741C18.5421 4.873 18.1469 5.44764 17.6346 6.2544C17.1606 7.00081 16.7564 7.62788 16.7364 7.6479C16.7163 7.66792 16.4833 7.48457 16.2186 7.24039C15.8132 6.86627 15.7131 6.79645 15.5823 6.79645C15.4913 6.79645 15.3848 6.83579 15.3249 6.89155C15.2686 6.94383 15.209 7.0409 15.1923 7.10726C15.1748 7.17662 15.1896 7.28377 15.2269 7.35913C15.2627 7.43125 15.5922 7.77733 15.9592 8.12814C16.5163 8.66062 16.65 8.76599 16.769 8.76599C16.8594 8.76599 16.9619 8.71896 17.05 8.63703C17.1262 8.56613 17.6375 7.80115 18.1862 6.93713C19.0145 5.63301 19.1844 5.33636 19.1867 5.19056C19.1884 5.07525 19.1574 4.98306 19.0964 4.92205C19.0451 4.87098 18.9399 4.81757 18.8625 4.80336C18.785 4.7892 18.671 4.80449 18.6091 4.83741ZM6.59178 5.30757C6.53944 5.36557 6.48343 5.45036 6.46732 5.49589C6.4512 5.54147 6.46783 5.74935 6.50434 5.95784C6.54291 6.17843 6.60629 6.37646 6.65586 6.43142C6.7027 6.48334 6.78962 6.54439 6.84901 6.56704C6.92099 6.59452 7.00978 6.58622 7.11535 6.54219C7.20251 6.50585 7.29972 6.42777 7.33143 6.36863C7.3771 6.28343 7.37658 6.18284 7.32889 5.88399C7.29577 5.67657 7.24061 5.45139 7.20627 5.38358C7.17197 5.31577 7.10967 5.24721 7.06781 5.23118C7.02599 5.21518 6.92319 5.20205 6.83938 5.20205C6.74081 5.20205 6.65332 5.23933 6.59178 5.30757ZM13.6222 16.0805C13.6695 16.1057 13.7315 16.1932 13.7601 16.275C13.7886 16.3568 13.812 16.5049 13.812 16.6043V16.7848H10.2178H6.62358V16.5182C6.62358 16.309 6.64557 16.2282 6.72572 16.1431L6.82791 16.0345H10.1821C12.2802 16.0345 13.5684 16.0518 13.6222 16.0805ZM19.3774 17.6581C19.4192 17.6741 19.4861 17.7503 19.5261 17.8274C19.5951 17.9606 19.5862 18.0177 19.3493 18.9706L19.0998 19.9736H12.2251C6.18518 19.9736 5.33371 19.9822 5.21315 20.0444C5.1377 20.0834 5.05416 20.1559 5.02757 20.2055C5.00093 20.2551 4.97918 20.3515 4.97918 20.4196C4.97918 20.4941 5.03401 20.5983 5.11651 20.6807L5.25384 20.8177H12.0709H18.8879L18.8563 20.9467C18.8389 21.0176 18.801 21.16 18.7719 21.2632C18.732 21.4048 18.6791 21.4709 18.556 21.5328C18.4025 21.6099 17.9086 21.6148 10.2413 21.6146C4.67463 21.6145 2.0332 21.5987 1.91147 21.565C1.78048 21.5287 1.71498 21.4758 1.66471 21.366C1.62708 21.2837 1.41706 20.4936 1.19808 19.6104C0.86943 18.285 0.808259 17.9819 0.847865 17.8753C0.87427 17.8043 0.930696 17.7198 0.973216 17.6876C1.03448 17.6411 2.94819 17.6289 10.1759 17.6289C15.1949 17.6289 19.3355 17.6421 19.3774 17.6581ZM3.2136 20.0376C3.1334 20.0739 3.04324 20.165 3.0112 20.2421C2.97949 20.3187 2.96765 20.4376 2.98498 20.5064C3.00227 20.5753 3.06979 20.6735 3.13495 20.7247C3.22525 20.7956 3.32542 20.8177 3.55564 20.8177C3.72182 20.8177 3.90392 20.7931 3.9604 20.7632C4.01682 20.7332 4.08875 20.6751 4.12023 20.6342C4.15171 20.5933 4.17816 20.4924 4.17896 20.41C4.1799 20.3184 4.13729 20.2101 4.06935 20.1313C3.97332 20.0198 3.91745 20.0003 3.65825 19.9873C3.47126 19.9779 3.30376 19.9968 3.2136 20.0376ZM17.5236 22.4367C17.5236 22.4503 17.4515 22.6043 17.3634 22.779C17.2586 22.9867 17.1602 23.1162 17.0793 23.153C16.9847 23.196 15.3619 23.2093 10.2226 23.2093C5.39827 23.2093 3.4472 23.1945 3.3397 23.1571C3.2206 23.1157 3.15614 23.0385 3.02727 22.7831C2.938 22.6062 2.86494 22.4503 2.86494 22.4367C2.86494 22.4232 6.16315 22.4121 10.1943 22.4121C14.2254 22.4121 17.5236 22.4232 17.5236 22.4367Z" fill="#FFF500"/>
</svg>
