<svg width="36" height="36" viewBox="0 0 36 36" fill="none" xmlns="http://www.w3.org/2000/svg">
<circle cx="18" cy="18" r="18" fill="#AFAFAF"/>
<path fill-rule="evenodd" clip-rule="evenodd" d="M13.5764 10.7898C13.2446 10.0388 12.8954 10.0237 12.5798 10.0105C12.3216 9.9993 12.0261 10 11.7311 10C11.4358 10 10.956 10.1129 10.5502 10.5642C10.1442 11.0155 9 12.1065 9 14.3253C9 16.5445 10.5871 18.6885 10.8083 18.9896C11.0298 19.2904 13.8722 23.9892 18.3735 25.797C22.1146 27.2993 22.8759 27.0004 23.6879 26.9253C24.4999 26.8501 26.3081 25.8345 26.6771 24.7814C27.0462 23.7285 27.0462 22.8259 26.9355 22.6373C26.8247 22.4493 26.5295 22.3366 26.0866 22.111C25.6436 21.8855 23.4664 20.7943 23.0604 20.6439C22.6544 20.4936 22.3591 20.4185 22.0639 20.8699C21.7686 21.321 20.9204 22.3366 20.6619 22.6373C20.4036 22.9387 20.1453 22.9763 19.7023 22.7507C19.2594 22.5245 17.833 22.0488 16.1409 20.5124C14.8244 19.3171 13.9356 17.8409 13.6771 17.3894C13.4188 16.9383 13.6495 16.694 13.8717 16.4692C14.0705 16.2671 14.3146 15.9428 14.536 15.6794C14.757 15.4161 14.8309 15.2281 14.9785 14.9274C15.1261 14.6262 15.0523 14.3629 14.9416 14.1374C14.8309 13.9118 13.9702 11.6815 13.5764 10.7898Z" fill="#D0D0D0"/>
</svg>
