<svg width="8" height="8" viewBox="0 0 8 8" fill="none" xmlns="http://www.w3.org/2000/svg">
<path d="M7.35806 5.25108C6.86827 5.25108 6.38736 5.17448 5.93163 5.02388C5.70832 4.94771 5.4338 5.01758 5.29751 5.15756L4.39799 5.8366C3.3548 5.27975 2.71222 4.63738 2.16297 3.60202L2.82203 2.72594C2.99326 2.55494 3.05468 2.30515 2.9811 2.07077C2.82985 1.61265 2.75301 1.13196 2.75301 0.641958C2.75303 0.287979 2.46506 0 2.1111 0H0.641936C0.287978 0 0 0.287979 0 0.641937C0 4.69923 3.30078 8 7.35806 8C7.71202 8 8 7.71202 8 7.35806V5.893C7.99998 5.53906 7.712 5.25108 7.35806 5.25108Z" fill="#fff"/>
</svg>
