<svg width="27" height="27" viewBox="0 0 27 27" fill="none" xmlns="http://www.w3.org/2000/svg">
<path fill-rule="evenodd" clip-rule="evenodd" d="M12.7532 0.0160942C12.6043 0.0288871 12.3258 0.0579031 12.1343 0.0806001C11.9429 0.103271 11.5947 0.156661 11.3607 0.199244C11.1267 0.241801 10.7379 0.327017 10.4968 0.388583C10.2557 0.450175 9.93074 0.541092 9.77473 0.590664C9.61871 0.64021 9.36341 0.726511 9.20739 0.782454C9.05137 0.838397 8.76706 0.950876 8.57559 1.03238C8.38411 1.11388 8.02437 1.28318 7.77616 1.40861C7.52795 1.53403 7.19033 1.71675 7.02588 1.81465C6.86146 1.91256 6.58295 2.08877 6.40697 2.20623C6.23102 2.32366 5.95939 2.51612 5.80338 2.63388C5.64736 2.75168 5.42687 2.92508 5.31341 3.01922C5.19994 3.11338 4.95789 3.32607 4.77555 3.49183C4.5932 3.65762 4.31446 3.93254 4.15612 4.10277C3.99781 4.273 3.79787 4.49352 3.71184 4.59282C3.62581 4.69212 3.46193 4.89136 3.34766 5.03556C3.2334 5.17977 3.024 5.46412 2.88235 5.66747C2.74069 5.87081 2.52433 6.20467 2.40156 6.40938C2.27878 6.61409 2.07565 6.98549 1.95014 7.23472C1.82465 7.48395 1.66397 7.8216 1.59305 7.98504C1.52216 8.14848 1.40513 8.44445 1.333 8.64274C1.2609 8.84103 1.15527 9.15494 1.09833 9.34034C1.04137 9.52573 0.948557 9.86812 0.892056 10.1012C0.83558 10.3343 0.754941 10.7281 0.712907 10.9764C0.670847 11.2246 0.616975 11.6076 0.593199 11.8275C0.569422 12.0474 0.543944 12.5471 0.536594 12.938C0.528471 13.3696 0.535228 13.8202 0.553795 14.0857C0.570634 14.3261 0.607253 14.695 0.635182 14.9055C0.66311 15.116 0.714918 15.4468 0.750325 15.6406C0.785758 15.8344 0.862168 16.1844 0.920191 16.4185C0.978188 16.6525 1.09233 17.0472 1.17384 17.2954C1.25536 17.5437 1.3803 17.8918 1.45147 18.0692C1.52268 18.2465 1.64102 18.525 1.71446 18.6882C1.7879 18.8513 1.92456 19.1299 2.01814 19.3072C2.11172 19.4845 2.2638 19.7573 2.35607 19.9133C2.44831 20.0693 2.61639 20.3363 2.72958 20.5065C2.84274 20.6767 3.0305 20.9442 3.1468 21.1009C3.26313 21.2576 3.47859 21.5304 3.62561 21.707C3.77262 21.8837 4.11968 22.2551 4.39685 22.5323C4.67402 22.8095 5.04521 23.1565 5.22173 23.3034C5.39822 23.4504 5.68186 23.6745 5.85201 23.8014C6.02219 23.9283 6.30715 24.1282 6.48526 24.2455C6.66338 24.3629 6.95417 24.5431 7.13146 24.6459C7.30875 24.7487 7.61047 24.9113 7.80195 25.0072C7.99342 25.1031 8.31255 25.2519 8.51112 25.3379C8.70968 25.4238 9.02881 25.5512 9.22028 25.621C9.41176 25.6907 9.66706 25.7781 9.78762 25.8152C9.90818 25.8523 10.1537 25.9227 10.3331 25.9718C10.5126 26.0208 10.8346 26.0965 11.0488 26.1399C11.2629 26.1833 11.6382 26.2474 11.8829 26.2823C12.1276 26.3172 12.4763 26.3579 12.6579 26.3728C12.8395 26.3878 13.3338 26.4 13.7562 26.4C14.2398 26.4 14.6763 26.3857 14.9346 26.3613C15.1603 26.34 15.4726 26.3043 15.6286 26.282C15.7846 26.2597 16.0631 26.2125 16.2475 26.1771C16.4319 26.1417 16.7684 26.0664 16.9954 26.0098C17.2223 25.9532 17.6459 25.8275 17.9366 25.7305C18.2274 25.6335 18.6509 25.4752 18.8779 25.3788C19.1048 25.2823 19.4762 25.1091 19.7031 24.9938C19.93 24.8785 20.3051 24.6704 20.5367 24.5313C20.7682 24.3922 21.0989 24.1794 21.2716 24.0584C21.4443 23.9375 21.7075 23.7431 21.8564 23.6264C22.0053 23.5097 22.2548 23.3042 22.4108 23.1698C22.5669 23.0353 22.8545 22.7661 23.0501 22.5714C23.2456 22.3766 23.5242 22.0819 23.6691 21.9165C23.8141 21.751 24.0322 21.4879 24.1539 21.3319C24.2755 21.1758 24.4687 20.9147 24.5832 20.7515C24.6976 20.5884 24.8835 20.304 24.9962 20.1196C25.1088 19.9352 25.2844 19.6309 25.3864 19.4434C25.4883 19.2559 25.6415 18.9507 25.7268 18.765C25.812 18.5794 25.9496 18.257 26.0325 18.0485C26.1154 17.84 26.2416 17.4886 26.3129 17.2677C26.3842 17.0468 26.4945 16.658 26.5579 16.4037C26.6214 16.1494 26.7034 15.773 26.7401 15.5673C26.7769 15.3616 26.8239 15.0599 26.8446 14.8967C26.8653 14.7336 26.8958 14.4295 26.9124 14.221C26.9315 13.9802 26.9379 13.5192 26.9297 12.9572C26.9211 12.3618 26.9029 11.9587 26.874 11.7243C26.8503 11.5328 26.8019 11.202 26.7664 10.9892C26.7308 10.7765 26.672 10.4689 26.6357 10.3058C26.5993 10.1426 26.5131 9.80911 26.4439 9.5646C26.3747 9.32009 26.2471 8.9258 26.1603 8.68839C26.0734 8.45097 25.9443 8.12292 25.8734 7.9594C25.8024 7.79586 25.6473 7.46943 25.5287 7.23395C25.41 6.99849 25.2124 6.63869 25.0895 6.4344C24.9667 6.23012 24.7972 5.96042 24.713 5.83507C24.6287 5.70972 24.4403 5.44857 24.2943 5.25474C24.1482 5.06092 23.9149 4.76942 23.7758 4.607C23.6367 4.44456 23.3945 4.17873 23.2377 4.01624C23.0808 3.85377 22.8131 3.5935 22.6429 3.43787C22.4727 3.28227 22.1934 3.04217 22.0221 2.90431C21.8509 2.76648 21.5549 2.54359 21.3645 2.409C21.1741 2.27442 20.8927 2.08601 20.7393 1.99027C20.5859 1.89456 20.2913 1.72229 20.0848 1.60749C19.8782 1.49269 19.5279 1.31503 19.3064 1.21274C19.0849 1.11043 18.7702 0.974218 18.6071 0.910021C18.444 0.845825 18.1887 0.750858 18.0398 0.698991C17.8908 0.647097 17.5892 0.55293 17.3695 0.489714C17.1497 0.426472 16.7803 0.333956 16.5484 0.284074C16.3165 0.234218 15.9741 0.16997 15.7875 0.14134C15.6008 0.112711 15.2914 0.0714955 15.0999 0.0497786C14.8784 0.0246572 14.4376 0.00711858 13.8879 0.00157328C13.4128 -0.00322404 12.9022 0.00332714 12.7532 0.0160942ZM19.3977 7.97134C19.4689 7.99249 19.566 8.036 19.6136 8.06806C19.6611 8.1001 19.7268 8.17856 19.7596 8.24239C19.7949 8.31118 19.8301 8.44597 19.846 8.57333C19.8649 8.72416 19.8646 8.86635 19.845 9.05048C19.8297 9.19474 19.7823 9.59132 19.7398 9.93177C19.6973 10.2722 19.6043 10.9454 19.5331 11.4277C19.4619 11.91 19.3288 12.7747 19.2372 13.3492C19.1457 13.9237 18.9785 14.9335 18.8656 15.5931C18.7528 16.2528 18.5852 17.2045 18.4932 17.7081C18.4012 18.2117 18.2963 18.7257 18.2601 18.8504C18.2238 18.975 18.1528 19.1592 18.1022 19.2597C18.0516 19.3602 17.9559 19.5008 17.8896 19.5721C17.8233 19.6435 17.7168 19.7256 17.653 19.7546C17.5621 19.7959 17.4866 19.807 17.3048 19.8054C17.1249 19.8039 17.0263 19.7879 16.8664 19.7342C16.753 19.6961 16.5847 19.6233 16.4925 19.5726C16.4003 19.5218 16.1102 19.3329 15.8478 19.1528C15.5854 18.9727 15.0342 18.5993 14.6229 18.323C14.2115 18.0467 13.4985 17.5664 13.0383 17.2558C12.5781 16.9451 12.1291 16.6232 12.0406 16.5403C11.9499 16.4555 11.8507 16.3318 11.8135 16.2572C11.7684 16.1666 11.7475 16.0826 11.7475 15.992C11.7475 15.8947 11.7694 15.8151 11.8295 15.694C11.8943 15.5635 11.9908 15.4499 12.2879 15.1547C12.4948 14.949 13.0989 14.3745 13.6302 13.878C14.1615 13.3815 14.8857 12.6967 15.2395 12.3562C15.5933 12.0158 15.9807 11.6273 16.1004 11.4929C16.22 11.3584 16.3266 11.2251 16.3372 11.1965C16.3477 11.1679 16.3465 11.1101 16.3345 11.0681C16.3224 11.0261 16.2961 10.9752 16.2761 10.9552C16.256 10.9351 16.193 10.9193 16.1361 10.92C16.0792 10.9208 15.9838 10.9464 15.9241 10.9769C15.8643 11.0074 15.6533 11.1365 15.4551 11.2638C15.257 11.3911 14.6057 11.8214 14.0078 12.22C13.41 12.6185 12.3217 13.3488 11.5894 13.8427C10.8571 14.3367 10.1706 14.7879 10.064 14.8455C9.95728 14.903 9.77896 14.9833 9.66765 15.0239C9.55633 15.0645 9.37512 15.1114 9.2649 15.128C9.11476 15.1507 9.00485 15.1512 8.8265 15.1297C8.6956 15.114 8.4557 15.0714 8.29344 15.0352C8.13115 14.999 7.83916 14.9243 7.64451 14.8693C7.44989 14.8143 7.03143 14.6865 6.71465 14.5853C6.39784 14.4841 6.06399 14.3675 5.97278 14.3261C5.88157 14.2848 5.76743 14.2208 5.71915 14.184C5.67088 14.1471 5.60919 14.0806 5.58209 14.0362C5.55249 13.9876 5.53276 13.908 5.53271 13.8367C5.53263 13.7461 5.55063 13.6932 5.60891 13.6127C5.65089 13.5547 5.75242 13.4617 5.83455 13.406C5.91669 13.3503 6.05352 13.2696 6.13862 13.2268C6.22372 13.1839 6.6821 12.9804 7.15725 12.7745C7.63239 12.5687 8.81026 12.058 9.77473 11.6397C10.7392 11.2214 12.0588 10.6516 12.7071 10.3736C13.3555 10.0955 14.2664 9.70983 14.7315 9.51649C15.1965 9.32316 15.931 9.02209 16.3636 8.84745C16.7961 8.67279 17.3849 8.442 17.6719 8.33457C17.9588 8.22715 18.2954 8.10936 18.4197 8.07281C18.5441 8.03626 18.7212 7.99092 18.8134 7.97207C18.9056 7.95319 19.0457 7.93665 19.1246 7.93531C19.2036 7.93397 19.3265 7.95019 19.3977 7.97134Z" fill="#C4C4C4"/>
</svg>
