<svg width="13" height="15" viewBox="0 0 13 15" fill="none" xmlns="http://www.w3.org/2000/svg">
<path fill-rule="evenodd" clip-rule="evenodd" d="M6.19632 0.00859604C6.16366 0.0158434 6.09765 0.0360684 6.04962 0.0535355C6.00159 0.0710026 5.91786 0.112617 5.86355 0.146004C5.80922 0.179391 5.73004 0.239055 5.68756 0.27857C5.64508 0.318086 5.58048 0.393715 5.544 0.446622C5.50751 0.499514 5.45508 0.593422 5.4275 0.655277C5.3999 0.717132 5.36909 0.805663 5.35902 0.852012C5.34519 0.915614 5.33922 1.40258 5.33466 2.83775L5.32862 4.73922L5.16288 4.74911C5.07173 4.75455 4.76395 4.75934 4.47893 4.75976C4.19391 4.76018 3.85743 4.76627 3.73121 4.77327C3.60101 4.7805 3.48393 4.7946 3.46062 4.80584C3.43803 4.81675 3.40638 4.84772 3.39029 4.87466C3.37421 4.90159 3.36105 4.94419 3.36105 4.96932C3.36105 4.99547 3.37917 5.04056 3.40344 5.07476C3.42676 5.10763 3.58488 5.28621 3.75481 5.4716C3.92474 5.657 4.59664 6.36227 5.24794 7.03888L6.43211 8.26908L7.30391 7.3683C7.7834 6.87288 8.44514 6.18274 8.77445 5.83467C9.10376 5.4866 9.3969 5.16487 9.42587 5.11972C9.45485 5.07456 9.48208 5.01042 9.48639 4.97719C9.49069 4.94396 9.48658 4.90201 9.47725 4.88396C9.46792 4.86592 9.43374 4.83715 9.40128 4.82002C9.36882 4.80287 9.2941 4.78239 9.23521 4.77447C9.17631 4.76654 8.77001 4.75986 8.33229 4.7596L7.53645 4.75913L7.53642 4.41821C7.5364 4.2307 7.53214 3.35333 7.52694 2.46849L7.51748 0.859673L7.45495 0.720181C7.42057 0.643464 7.36542 0.539535 7.33239 0.489202C7.29937 0.438884 7.22199 0.349051 7.16045 0.289571C7.08373 0.215428 7.01005 0.161908 6.92604 0.119282C6.85867 0.0850989 6.76355 0.0458439 6.71469 0.0320694C6.66311 0.0175288 6.54822 0.00458167 6.44077 0.00121083C6.33898 -0.00197615 6.22897 0.00134872 6.19632 0.00859604ZM0.0851367 7.40573L0 7.495L0.000207288 10.3828C0.000325739 12.0695 0.00642597 13.3775 0.0148508 13.5278C0.0264442 13.7342 0.036631 13.8077 0.066451 13.8996C0.0868838 13.9626 0.132843 14.0744 0.168556 14.148C0.204284 14.2216 0.263613 14.3231 0.300392 14.3737C0.337186 14.4243 0.412905 14.5109 0.468666 14.5663C0.524427 14.6216 0.61254 14.6966 0.664481 14.7329C0.716421 14.7692 0.80637 14.8215 0.864367 14.8491C0.922363 14.8767 1.01313 14.9142 1.06606 14.9324C1.15179 14.9618 1.21726 14.9673 1.66572 14.9827C2.00391 14.9943 3.59061 15 6.5 15C9.40867 15 10.9962 14.9943 11.3343 14.9827C11.8138 14.9662 11.8429 14.9635 11.9483 14.9259C12.0092 14.9043 12.1056 14.862 12.1627 14.8319C12.2198 14.8019 12.3075 14.7471 12.3576 14.7101C12.4077 14.6731 12.4859 14.6077 12.5313 14.5648C12.5767 14.5218 12.6502 14.4367 12.6946 14.3756C12.7391 14.3144 12.799 14.22 12.8277 14.1658C12.8564 14.1116 12.9009 14.0023 12.9265 13.923L12.9731 13.7787L12.9859 13.2641C12.993 12.9811 12.9991 11.5669 12.9994 10.1214L13 7.49314L12.9137 7.40477L12.8274 7.31637L11.9179 7.32097L11.0085 7.32557L10.9407 7.36018C10.9033 7.37921 10.8589 7.41024 10.8419 7.42913C10.8111 7.46345 10.8111 7.46469 10.8004 9.50129C10.7946 10.6221 10.7879 11.5495 10.7856 11.5621C10.7832 11.5747 10.7808 11.8385 10.7802 12.1482L10.779 12.7113H6.5H2.22096L2.21993 12.1712C2.21937 11.8741 2.21684 11.6138 2.21431 11.5927C2.21178 11.5717 2.205 10.634 2.19925 9.50896C2.18881 7.46573 2.18877 7.46343 2.158 7.42913C2.14106 7.41024 2.09666 7.37921 2.05933 7.36018L1.99146 7.32557L1.08087 7.32102L0.170273 7.31645L0.0851367 7.40573Z" fill="white"/>
</svg>
