<svg width="36" height="36" viewBox="0 0 36 36" fill="none" xmlns="http://www.w3.org/2000/svg">
<path d="M0.150099 17.8379C0.149165 20.9813 0.974177 24.0507 2.54308 26.756L0 36L9.50233 33.5196C12.1203 34.9401 15.0679 35.6896 18.0677 35.6907H18.0758C27.9544 35.6907 35.9959 27.6879 36 17.8518C36.002 13.0854 34.1391 8.60358 30.7546 5.23179C27.3707 1.85999 22.8701 0.0021267 18.0751 -3.66767e-07C8.19524 -3.66767e-07 0.154106 8.00216 0.150099 17.838" fill="url(#paint0_linear_277_17949)"/>
<path fill-rule="evenodd" clip-rule="evenodd" d="M13.4622 10.1714C13.114 9.39743 12.7475 9.38185 12.4162 9.36827C12.1453 9.3567 11.8351 9.35743 11.5255 9.35743C11.2156 9.35743 10.712 9.47383 10.2862 9.93893C9.86005 10.404 8.65918 11.5284 8.65918 13.8152C8.65918 16.1023 10.3249 18.3119 10.5571 18.6223C10.7895 18.9323 13.7726 23.775 18.4969 25.6381C22.4233 27.1864 23.2223 26.8784 24.0745 26.8009C24.9267 26.7235 26.8245 25.6768 27.2118 24.5915C27.5992 23.5062 27.5992 22.5761 27.483 22.3816C27.3667 22.1879 27.0569 22.0717 26.592 21.8393C26.1271 21.6068 23.842 20.4822 23.4159 20.3273C22.9898 20.1723 22.6799 20.0949 22.37 20.5602C22.0601 21.0251 21.17 22.0717 20.8987 22.3817C20.6275 22.6923 20.3564 22.731 19.8915 22.4986C19.4267 22.2654 17.9297 21.7751 16.1538 20.1917C14.772 18.9598 13.8393 17.4384 13.5679 16.9731C13.2968 16.5082 13.539 16.2564 13.7721 16.0247C13.9808 15.8165 14.237 15.4822 14.4694 15.2107C14.7013 14.9393 14.7789 14.7456 14.9338 14.4357C15.0887 14.1253 15.0112 13.8539 14.895 13.6215C14.7789 13.389 13.8755 11.0904 13.4622 10.1714Z" fill="#D0D0D0"/>
<defs>
<linearGradient id="paint0_linear_277_17949" x1="17.9999" y1="36" x2="17.9999" y2="-3.34558e-05" gradientUnits="userSpaceOnUse">
<stop stop-color="#AFAFAF"/>
<stop offset="1" stop-color="#AFAFAF"/>
</linearGradient>
</defs>
</svg>
